<svg xmlns="http://www.w3.org/2000/svg" viewBox="0 0 24 24" id="train">
  <path d="M17.92,9.39a.5.5,0,0,0,0-.48L16.12,5.08a.5.5,0,0,0-.45-.28H8.33a.5.5,0,0,0-.45.28L6,8.91a.5.5,0,0,0,.45.72h11A.5.5,0,0,0,17.92,9.39ZM7.29,8.63,8.65,5.79h6.7l1.36,2.83ZM5.5,14.38A1.46,1.46,0,1,0,7,15.83,1.48,1.48,0,0,0,5.5,14.38Zm0,1.92a.46.46,0,1,1,.5-.46A.48.48,0,0,1,5.5,16.29ZM22,6.29a.49.49,0,0,0,0-.18A3.49,3.49,0,0,0,18.5,2.88H13.2L13.86,1H17.3l.86.82a.5.5,0,1,0,.69-.72l-1-1A.5.5,0,0,0,17.5,0H6.5a.5.5,0,0,0-.35.14l-1,1a.5.5,0,1,0,.69.72L6.7,1h3.44l.65,1.88H5.5A3.49,3.49,0,0,0,2,6.11a.49.49,0,0,0,0,.18s0,.06,0,.09v9.25A5.51,5.51,0,0,0,5.37,20.7L3.59,23.21a.5.5,0,0,0,.82.58L4.95,23H19.05l.54.76a.5.5,0,0,0,.82-.58L18.63,20.7A5.51,5.51,0,0,0,22,15.63V6.38S22,6.32,22,6.29ZM12.8,1l-.65,1.88h-.29L11.2,1ZM5.5,3.88h13A2.49,2.49,0,0,1,21,6.14l-5.55,8.36a4.16,4.16,0,0,1-6.85,0L3,6.14A2.49,2.49,0,0,1,5.5,3.88ZM5.65,22l.73-1a5.5,5.5,0,0,0,1.12.12h9A5.5,5.5,0,0,0,17.62,21l.73,1ZM21,15.63a4.5,4.5,0,0,1-4.5,4.5h-9A4.5,4.5,0,0,1,3,15.63V7.91L7.74,15a5.16,5.16,0,0,0,8.52,0L21,7.91Zm-2.5,1.67A1.46,1.46,0,1,0,17,15.83,1.48,1.48,0,0,0,18.5,17.29Zm0-1.92a.46.46,0,1,1-.5.46A.48.48,0,0,1,18.5,15.38Z" fill="#fdb913" class="color000000 svgShape"></path>
</svg>
